<svg width="12" height="6" viewBox="0 0 12 6" fill="none" xmlns="http://www.w3.org/2000/svg">
<path fill-rule="evenodd" clip-rule="evenodd" d="M1.80812 0.195262C1.54777 -0.0650874 1.12566 -0.0650874 0.865306 0.195262C0.604957 0.455612 0.604957 0.877722 0.865306 1.13807L5.52565 5.79842C5.52771 5.80053 5.52979 5.80264 5.53189 5.80474C5.66259 5.93543 5.83404 6.00052 6.00534 6C6.1753 5.9995 6.34511 5.93441 6.47478 5.80474C6.47687 5.80265 6.47894 5.80056 6.48099 5.79845L11.1414 1.13807C11.4017 0.877722 11.4017 0.455612 11.1414 0.195262C10.881 -0.0650874 10.4589 -0.0650874 10.1986 0.195262L6.00334 4.39048L1.80812 0.195262Z" fill="#2D3440"/>
</svg>
