<svg width="38" height="38" viewBox="0 0 38 38" fill="none" xmlns="http://www.w3.org/2000/svg">
<path d="M0 19C0 8.50659 8.50659 0 19 0C29.4934 0 38 8.50659 38 19C38 29.4934 29.4934 38 19 38C8.50659 38 0 29.4934 0 19Z" fill="#FCFCFC"/>
<path fill-rule="evenodd" clip-rule="evenodd" d="M18.1353 13.8647C17.8756 13.605 17.4545 13.605 17.1948 13.8647C16.9351 14.1244 16.9351 14.5454 17.1948 14.8051L21.3961 19.0064L17.1948 23.2077C16.9351 23.4674 16.9351 23.8885 17.1948 24.1482C17.4545 24.4079 17.8755 24.4079 18.1352 24.1482L22.8039 19.4795C22.8049 19.4785 22.8058 19.4776 22.8068 19.4767C23.0665 19.217 23.0665 18.7959 22.8068 18.5362L18.1353 13.8647Z" fill="#2D3440"/>
</svg>
