<svg width="38" height="38" viewBox="0 0 38 38" fill="none" xmlns="http://www.w3.org/2000/svg">
<path d="M0 19C0 8.50659 8.50659 0 19 0C29.4934 0 38 8.50659 38 19C38 29.4934 29.4934 38 19 38C8.50659 38 0 29.4934 0 19Z" fill="#FCFCFC" fill-opacity="0.3"/>
<path fill-rule="evenodd" clip-rule="evenodd" d="M20.8033 14.8052C21.063 14.5455 21.063 14.1245 20.8033 13.8648C20.5436 13.6051 20.1226 13.6051 19.8629 13.8648L15.1948 18.5328C14.9359 18.7917 14.9351 19.2108 15.1922 19.4707C15.1934 19.4719 15.1945 19.4731 15.1957 19.4742L19.8638 24.1423C20.1235 24.402 20.5445 24.402 20.8042 24.1423C21.0639 23.8826 21.0639 23.4616 20.8042 23.2019L16.6054 19.0031L20.8033 14.8052Z" fill="#FCFCFC"/>
<path d="M19 36C9.61116 36 2 28.3888 2 19H-2C-2 30.598 7.40202 40 19 40V36ZM36 19C36 28.3888 28.3888 36 19 36V40C30.598 40 40 30.598 40 19H36ZM19 2C28.3888 2 36 9.61116 36 19H40C40 7.40202 30.598 -2 19 -2V2ZM19 -2C7.40202 -2 -2 7.40202 -2 19H2C2 9.61116 9.61116 2 19 2V-2Z" fill="#FCFCFC"/>
</svg>
